<svg width="125.000000" height="20.000000" viewBox="0 0 125 20" fill="none" xmlns="http://www.w3.org/2000/svg" xmlns:xlink="http://www.w3.org/1999/xlink">
	<desc>
			Created with Pixso.
	</desc>
	<defs>
		<clipPath id="clip1_17">
			<rect id="Frame" rx="-0.500000" width="124.000000" height="19.000000" transform="translate(0.500000 0.500000)" fill="white" fill-opacity="0"/>
		</clipPath>
	</defs>
	<rect id="Frame" rx="-0.500000" width="124.000000" height="19.000000" transform="translate(0.500000 0.500000)" fill="#FFFFFF" fill-opacity="0"/>
	<g clip-path="url(#clip1_17)">
		<path id="Vector" d="M11.94 11.62C13.01 11.62 13.61 10.91 13.61 9.38L13.61 0.1L16.3 0.1L16.3 19.58L13.51 19.58C13.51 19.58 8.5 12.5 6.57 9.91C5.75 8.78 5.3 8.07 4.38 8.07C3.31 8.07 2.71 8.78 2.71 10.31L2.71 19.58L0.02 19.58L0.02 0.1L2.81 0.1C2.81 0.1 7.82 7.19 9.74 9.78C10.56 10.91 11.01 11.62 11.94 11.62Z" fill="#000000" fill-opacity="1.000000" fill-rule="nonzero"/>
		<path id="Vector" d="M32.26 12.34C32.26 16.46 29.84 19.89 25.55 19.89C21.21 19.89 18.79 16.46 18.79 12.34C18.79 8.28 21.21 4.81 25.55 4.81C29.84 4.81 32.26 8.28 32.26 12.34ZM29.59 12.34C29.59 10.05 27.99 8.71 25.55 8.71C23.06 8.71 21.46 10.05 21.46 12.34C21.46 14.73 23.06 15.99 25.55 15.99C27.99 15.99 29.59 14.73 29.59 12.34Z" fill="#000000" fill-opacity="1.000000" fill-rule="nonzero"/>
		<path id="Vector" d="M45.6 14.86L45.6 8.89L43.3 8.89C40.56 8.89 38.89 9.16 37.94 10.8C37.49 11.58 37.39 12.54 37.39 13.97L37.39 19.58L34.7 19.58L34.7 5.11L37.39 5.11L37.39 8.79C38.14 6.27 39.76 5.11 42.65 5.11L45.6 5.11L45.6 1.41L48.29 1.41L48.29 5.11L53.72 5.11L53.72 8.89L48.29 8.89L48.29 13.76L45.6 14.86Z" fill="#000000" fill-opacity="1.000000" fill-rule="nonzero"/>
		<path id="Vector" d="M57.15 19.58L57.15 0.1L59.84 0.1L59.84 8.84C60.44 6.52 62.16 4.86 64.85 4.86C67.97 4.86 70.09 7.3 70.09 10.77L70.09 19.58L67.39 19.58L67.39 12.59C67.39 11.68 67.29 10.95 66.8 10.25C66.15 9.34 65.17 8.89 63.78 8.89C62.23 8.89 60.76 9.44 60.09 11.3C59.84 12 59.84 13.14 59.84 14.35L59.84 19.58L57.15 19.58L57.15 19.58Z" fill="#000000" fill-opacity="1.000000" fill-rule="nonzero"/>
		<path id="Vector" d="M88.7 14.86L88.7 8.89L86.4 8.89L86.4 5.11L88.7 5.11L88.7 1.41L91.39 1.41L91.39 5.11L96.82 5.11L96.82 8.89L91.39 8.89L91.39 13.76L88.7 14.86Z" fill="#000000" fill-opacity="1.000000" fill-rule="nonzero"/>
		<path id="Vector" d="M109.71 19.58L109.71 16.87C108.89 18.7 107.42 19.89 105.28 19.89C101.41 19.89 99.34 16.59 99.34 12.36C99.34 8.21 101.41 4.81 105.28 4.81C107.42 4.81 108.89 6.02 109.71 7.85L109.71 5.11L112.41 5.11L112.41 19.58L109.71 19.58ZM109.71 12.34C109.71 10.05 108.17 8.71 105.87 8.71C103.53 8.71 102.01 10.05 102.01 12.34C102.01 14.73 103.53 15.99 105.87 15.99C108.17 15.99 109.71 14.73 109.71 12.34Z" fill="#000000" fill-opacity="1.000000" fill-rule="nonzero"/>
		<path id="Vector" d="M115.87 19.58L115.87 5.11L118.56 5.11L118.56 8.79C119.31 6.27 120.93 5.11 123.83 5.11L124.97 5.11L124.97 8.89L124.47 8.89C121.73 8.89 120.06 9.16 119.11 10.8C118.66 11.58 118.56 12.54 118.56 13.97L118.56 19.58L115.87 19.58Z" fill="#000000" fill-opacity="1.000000" fill-rule="nonzero"/>
		<path id="Vector" d="M91.39 13.76C91.39 14.98 91.84 15.99 93.58 15.99C95.14 15.99 95.82 15.2 95.82 13.75L97.69 13.75C97.95 17.72 96.58 19.89 93.34 19.89C90.12 19.89 88.7 17.45 88.7 14.86L91.39 13.76Z" fill="#000000" fill-opacity="1.000000" fill-rule="nonzero"/>
		<path id="Vector" d="M48.29 13.76C48.29 14.98 48.75 15.99 50.48 15.99C52.04 15.99 52.72 15.2 52.72 13.75L54.59 13.75C54.85 17.72 53.48 19.89 50.24 19.89C47.02 19.89 45.6 17.45 45.6 14.86L48.29 13.76Z" fill="#000000" fill-opacity="1.000000" fill-rule="nonzero"/>
		<path id="Vector" d="M85.31 15.41C85.31 17.36 83.91 19.89 79.27 19.89C74.23 19.89 72.36 16.97 72.48 13.75L74.35 13.75C74.35 14.55 74.83 15.13 75.41 15.48C76.44 16.1 78.08 16.19 79.46 16.19C81.15 16.19 82.62 15.74 82.62 14.82C82.62 14.31 82.32 13.9 81.36 13.72C80.73 13.6 79.85 13.46 78.58 13.3C75.72 12.95 72.81 12.44 72.81 9.34C72.81 6.63 75.11 4.81 78.42 4.81C82.86 4.81 84.93 7.71 84.64 10.72L82.82 10.72C82.82 10.08 82.32 9.4 81.69 9.08C80.97 8.7 80.05 8.46 78.58 8.46C76.64 8.46 75.35 8.88 75.35 9.81C75.35 10.55 75.94 10.92 78.95 11.27C80.88 11.48 82.22 11.66 83.13 12.07C84.71 12.72 85.31 14.07 85.31 15.41Z" fill="#000000" fill-opacity="1.000000" fill-rule="nonzero"/>
	</g>
</svg>
