<svg width="200.000000" height="200.000000" viewBox="0 0 200 200" fill="none" xmlns="http://www.w3.org/2000/svg" xmlns:xlink="http://www.w3.org/1999/xlink">
	<desc>
			Created with Pixso.
	</desc>
	<defs>
		<clipPath id="clip1_43">
			<rect id="Frame" rx="-0.500000" width="199.000000" height="199.000000" transform="translate(0.500000 0.500000)" fill="white" fill-opacity="0"/>
		</clipPath>
	</defs>
	<rect id="Frame" rx="-0.500000" width="199.000000" height="199.000000" transform="translate(0.500000 0.500000)" fill="#FFFFFF" fill-opacity="0"/>
	<g clip-path="url(#clip1_43)">
		<path id="Vector" d="M6.22 59.85L47.07 63.67C51.67 64.11 55.28 59.87 54.02 55.53L42.91 16.92C45.7 15.21 45.48 15.35 48.26 13.65L79 40.2C82.46 43.2 87.92 41.86 89.53 37.61L103.76 0C107.04 0.21 106.79 0.19 110.06 0.41L118.97 39.56C119.97 43.98 125.19 46.02 129.04 43.52L163.18 21.26C165.69 23.32 165.5 23.17 168.02 25.22L151.68 62.02C149.84 66.16 152.83 70.82 157.46 71L198.46 72.61C199.26 75.72 199.19 75.48 200 78.6L164.66 98.97C160.67 101.27 160.29 106.76 163.92 109.56L196.12 134.42C194.9 137.4 194.99 137.17 193.77 140.14L152.92 136.32C148.32 135.89 144.71 140.12 145.97 144.46L157.08 183.07C154.29 184.78 154.51 184.65 151.73 186.34L120.99 159.79C117.53 156.79 112.07 158.13 110.46 162.38L96.23 200C92.96 199.78 93.2 199.8 89.93 199.58L81.02 160.43C80.02 156.01 74.8 153.97 70.95 156.47L36.81 178.73C34.3 176.67 34.49 176.82 31.97 174.77L48.31 137.97C50.15 133.83 47.17 129.17 42.54 128.99L1.53 127.38C0.73 124.27 0.8 124.51 0 121.39L35.33 101.02C39.32 98.72 39.7 93.23 36.07 90.43L3.87 65.57C5.09 62.59 4.99 62.82 6.22 59.85Z" fill="#D8EBE9" fill-opacity="1.000000" fill-rule="nonzero"/>
	</g>
</svg>
