<svg width="148.011719" height="120.460785" viewBox="0 0 148.012 120.461" fill="none" xmlns="http://www.w3.org/2000/svg" xmlns:xlink="http://www.w3.org/1999/xlink">
	<desc>
			Created with Pixso.
	</desc>
	<defs>
		<clipPath id="clip1_46">
			<rect id="Frame" rx="-0.500000" width="128.000000" height="73.000000" transform="translate(0.500000 53.493073) rotate(-24.255041)" fill="white" fill-opacity="0"/>
		</clipPath>
	</defs>
	<rect id="Frame" rx="-0.500000" width="128.000000" height="73.000000" transform="translate(0.500000 53.493073) rotate(-24.255041)" fill="#FFFFFF" fill-opacity="0"/>
	<g clip-path="url(#clip1_46)">
		<path id="Vector" d="M132.33 45.53C123.96 42.85 120.04 34.15 123.53 26.11C127.05 18.06 123.11 9.36 114.73 6.69C106.36 4.02 96.73 8.38 93.21 16.43C89.7 24.49 80.05 28.83 71.69 26.17C63.32 23.5 53.68 27.86 50.17 35.92C46.65 43.97 37.01 48.31 28.64 45.66C20.27 42.98 10.64 47.35 7.12 55.4C3.61 63.45 7.55 72.15 15.92 74.82C24.3 77.49 28.22 86.2 24.72 94.24C21.21 102.29 25.15 110.98 33.52 113.66C41.89 116.33 51.53 111.97 55.04 103.92C58.56 95.86 68.2 91.52 76.57 94.17C84.94 96.85 94.57 92.48 98.09 84.43C101.6 76.38 111.25 72.03 119.61 74.69C127.98 77.36 137.62 73 141.13 64.95C144.64 56.87 140.71 48.2 132.33 45.53Z" fill="#58D1BD" fill-opacity="1.000000" fill-rule="nonzero"/>
	</g>
</svg>
